# Blender 3.5.1
# www.blender.org
mtllib arrow.mtl
o Cube
v 1.000000 1.000000 6.792242
v 1.000000 -1.000000 6.792242
v -1.000000 1.000000 6.792242
v -1.000000 -1.000000 6.792242
v 1.000000 1.000000 3.924867
v 1.000000 -1.000000 3.924867
v -1.000000 1.000000 3.924867
v -1.000000 -1.000000 3.924867
v 0.063041 0.063041 7.662183
v 0.063041 -0.063041 7.662183
v -0.063042 0.063041 7.662183
v -0.063042 -0.063041 7.662183
v 5.000000 -0.999774 2.815600
v 5.000000 -0.999774 0.815600
v 5.000000 1.000226 2.815600
v -5.000000 -0.999774 0.815600
v -5.000000 1.000226 0.815600
v -5.000000 1.000226 2.815600
v -5.000000 -0.999774 2.815600
v 5.000000 1.000226 0.815600
v 1.000000 -5.000000 0.817408
v -1.000000 -5.000000 0.817408
v 1.000000 -5.000000 2.817408
v -1.000000 -5.000000 2.817408
v -1.000000 5.000000 2.817408
v -1.000000 5.000000 0.817408
v 1.000000 5.000000 2.817408
v 1.000000 5.000000 0.817408
v 1.000000 -1.000000 -7.896000
v -1.000000 -1.000000 -7.896000
v -1.000000 1.000000 -7.896000
v 1.000000 1.000000 -7.896000
vn 1.0000 -0.0000 -0.0000
vn 0.6137 -0.0000 -0.7895
vn -0.0000 -1.0000 -0.0000
vn -1.0000 -0.0000 -0.0000
vn -0.6804 -0.0000 0.7328
vn -0.6137 -0.0000 -0.7895
vn -0.0000 -0.0000 1.0000
vn 0.6804 -0.0000 0.7328
vn -0.0000 -0.6804 0.7328
vn -0.0000 0.6804 0.7328
vn 0.0001 -1.0000 -0.0000
vn -0.0001 1.0000 -0.0000
vn -0.0001 -1.0000 -0.0000
vn 0.0001 1.0000 -0.0000
vn -0.7050 -0.0000 0.7092
vn 0.7050 -0.0000 0.7092
vn -0.0000 0.6135 -0.7897
vn -0.0000 -0.7049 0.7093
vn -0.0000 1.0000 -0.0000
vn -0.0000 -0.6135 -0.7897
vn -0.0000 0.7049 0.7093
vn -0.0000 -0.0000 -1.0000
vt 0.625000 0.500000
vt 0.375000 0.500000
vt 0.625000 0.750000
vt 0.375000 0.750000
vt 0.875000 0.500000
vt 0.625000 0.250000
vt 0.125000 0.500000
vt 0.375000 0.250000
vt 0.875000 0.750000
vt 0.625000 0.000000
vt 0.125000 0.750000
vt 0.375000 0.000000
vt 0.625000 0.500000
vt 0.375000 0.500000
vt 0.625000 0.750000
vt 0.375000 0.750000
vt 0.375000 0.500000
vt 0.375000 0.250000
vt 0.125000 0.500000
vt 0.625000 0.500000
vt 0.375000 0.000000
vt 0.375000 1.000000
vt 0.125000 0.750000
vt 0.625000 0.000000
vt 0.625000 1.000000
vt 0.875000 0.750000
vt 0.625000 0.750000
vt 0.375000 0.750000
vt 0.625000 0.250000
vt 0.875000 0.500000
vt 0.375000 0.250000
vt 0.125000 0.500000
vt 0.125000 0.750000
vt 0.375000 0.000000
vt 0.375000 0.500000
vt 0.375000 0.750000
vt 0.625000 0.750000
vt 0.875000 0.750000
vt 0.625000 0.000000
vt 0.625000 0.500000
vt 0.875000 0.500000
vt 0.625000 0.250000
vt 0.375000 0.250000
vt 0.375000 0.000000
vt 0.625000 0.000000
vt 0.625000 0.250000
s 0
usemtl Material
f 1/1/1 5/5/1 28/41/1 27/40/1
f 7/10/2 8/12/2 16/21/2 17/24/2
f 6/8/3 8/12/3 30/44/3 29/43/3
f 4/4/4 8/11/4 22/33/4 24/36/4
f 3/3/5 4/4/5 12/16/5 11/15/5
f 6/8/6 5/6/6 20/29/6 14/18/6
f 10/14/7 9/13/7 11/15/7 12/16/7
f 2/2/8 1/1/8 9/13/8 10/14/8
f 4/4/9 2/2/9 10/14/9 12/16/9
f 1/1/10 3/3/10 11/15/10 9/13/10
f 19/28/4 18/27/4 17/25/4 16/22/4
f 14/18/1 20/29/1 15/20/1 13/17/1
f 2/2/11 6/7/11 14/19/11 13/17/11
f 5/5/12 1/1/12 15/20/12 20/30/12
f 8/11/13 4/4/13 19/28/13 16/23/13
f 3/3/14 7/9/14 17/26/14 18/27/14
f 4/4/15 3/3/15 18/27/15 19/28/15
f 1/1/16 2/2/16 13/17/16 15/20/16
f 21/32/3 23/35/3 24/36/3 22/33/3
f 8/12/17 6/8/17 21/31/17 22/34/17
f 2/2/18 4/4/18 24/36/18 23/35/18
f 6/7/1 2/2/1 23/35/1 21/32/1
f 27/40/19 28/41/19 26/38/19 25/37/19
f 7/9/4 3/3/4 25/37/4 26/38/4
f 5/6/20 7/10/20 26/39/20 28/42/20
f 3/3/21 1/1/21 27/40/21 25/37/21
f 30/44/22 31/45/22 32/46/22 29/43/22
f 7/10/19 5/6/19 32/46/19 31/45/19
f 5/6/1 6/8/1 29/43/1 32/46/1
f 8/12/4 7/10/4 31/45/4 30/44/4
